# xmcd CD database file
#
# Track frame offsets:
#	150
#	33832
#	63444
#	95259
#	125966
#	150094
#
# Disc length: 2377 seconds
#
# Revision: 0
# Processed by: cddbd v1.5.1PL2 Copyright (c) Steve Scherf et al.
# Submitted via: CDex 1.51
#
DISCID=41094706
DTITLE=Ike Quebec - Blue And Sentimental
DYEAR=1961
DGENRE=Jazz
TTITLE0=Blue And Sentimental
TTITLE1=Minor Impulse
TTITLE2=Don't Take Your Love From Me
TTITLE3=Blues For Charlie
TTITLE4=Like
TTITLE5=Count Every Star
EXTD=YEAR: 1961
EXTT0=
EXTT1=
EXTT2=
EXTT3=
EXTT4=
EXTT5=
PLAYORDER=
